# xmcd CD database file
#
# Track frame offsets:
#	150
#	19606
#	36537
#	51709
#	74333
#	84971
#	108951
#	124327
#	145813
#	160191
#	184108
#	184621
#	185187
#	185742
#	186269
#	186758
#	187282
#
# Disc length: 2758 seconds
#
# Revision: 0
# Processed by: cddbd v1.4PL0 Copyright (c) Steve Scherf et al.
# Submitted via: CDex 1.50
#
DISCID=060ac411
DTITLE=Dirtball - Turn Up The Barn
DYEAR=1999
DGENRE=Country
TTITLE0=3 AM
TTITLE1=Holy Ground
TTITLE2=Everything From You
TTITLE3=I Don't Feel This Way
TTITLE4=So Far, So Long
TTITLE5=The Best I Can Do
TTITLE6=Whiskey and Wild Women
TTITLE7=Over and Over
TTITLE8=Call Me Charity
TTITLE9=My Surrender
TTITLE10=blank
TTITLE11=blank
TTITLE12=blank
TTITLE13=blank
TTITLE14=blank
TTITLE15=blank
TTITLE16=bonus track
EXTD=YEAR: 1999
EXTT0=
EXTT1=
EXTT2=
EXTT3=
EXTT4=
EXTT5=
EXTT6=
EXTT7=
EXTT8=
EXTT9=
EXTT10=
EXTT11=
EXTT12=
EXTT13=
EXTT14=
EXTT15=
EXTT16=
PLAYORDER=
